<svg width="700" height="296" viewBox="0 0 700 296" xmlns="http://www.w3.org/2000/svg" role="img" aria-labelledby="wf-title wf-desc">
  <title id="wf-title">The Waterfall Problem: Sequential Blocking Requests</title>
  <desc id="wf-desc">A timing diagram showing five sequential requests — JS bundle, page data, image sizes, author info, and video player — each blocked by the previous, totalling approximately 2.2 seconds before the page renders.</desc>

  <defs>
    <pattern id="hatch" width="10" height="10" patternUnits="userSpaceOnUse">
      <line x1="0" y1="10" x2="10" y2="0" stroke="#dde1e7" stroke-width="1"/>
    </pattern>
  </defs>

  <!-- card background -->
  <rect width="700" height="296" rx="8" fill="#ffffff" stroke="#e2e8f0" stroke-width="1"/>

  <!-- title -->
  <text x="350" y="22" text-anchor="middle" font-family="system-ui,-apple-system,sans-serif" font-size="13" font-weight="700" fill="#0f172a">The Waterfall: Sequential Blocking Requests</text>
  <text x="350" y="37" text-anchor="middle" font-family="system-ui,-apple-system,sans-serif" font-size="10" fill="#64748b">Each step is blocked by the previous — nothing renders until all complete</text>

  <!-- legend -->
  <g transform="translate(151,47)" font-family="system-ui,-apple-system,sans-serif" font-size="9" fill="#64748b">
    <rect width="8" height="8" rx="2" fill="#6366f1"/><text x="11" y="8">JS load</text>
    <rect x="63" width="8" height="8" rx="2" fill="#f97316"/><text x="74" y="8">CMS fetch</text>
    <rect x="145" width="8" height="8" rx="2" fill="#3b82f6"/><text x="156" y="8">component fetch</text>
    <rect x="261" width="8" height="8" rx="2" fill="#94a3b8"/><text x="272" y="8">idle / blocked</text>
  </g>

  <!-- time axis labels -->
  <g font-family="system-ui,-apple-system,sans-serif" font-size="9" fill="#94a3b8" text-anchor="middle">
    <text x="180" y="64">0</text>
    <text x="255" y="64">300ms</text>
    <text x="395" y="64">900ms</text>
    <text x="470" y="64">1.2s</text>
    <text x="545" y="64">1.5s</text>
    <text x="680" y="64">~2.2s</text>
  </g>

  <!-- axis line + ticks -->
  <line x1="180" y1="68" x2="680" y2="68" stroke="#e2e8f0" stroke-width="1"/>
  <g stroke="#d1d5db" stroke-width="1">
    <line x1="180" y1="68" x2="180" y2="72"/>
    <line x1="255" y1="68" x2="255" y2="72"/>
    <line x1="395" y1="68" x2="395" y2="72"/>
    <line x1="470" y1="68" x2="470" y2="72"/>
    <line x1="545" y1="68" x2="545" y2="72"/>
    <line x1="680" y1="68" x2="680" y2="72"/>
  </g>

  <!-- vertical grid lines -->
  <g stroke="#f1f5f9" stroke-width="1">
    <line x1="255" y1="72" x2="255" y2="255"/>
    <line x1="395" y1="72" x2="395" y2="255"/>
    <line x1="470" y1="72" x2="470" y2="255"/>
    <line x1="545" y1="72" x2="545" y2="255"/>
  </g>

  <!-- ── ROW 1: app bundle (0 → 300ms) x=180..255 ── -->
  <text x="174" y="91" text-anchor="end" font-family="system-ui,-apple-system,sans-serif" font-size="10" fill="#475569">app bundle</text>
  <rect x="180" y="76" width="75" height="30" rx="3" fill="#6366f1"/>
  <text x="217" y="95" text-anchor="middle" font-family="system-ui,-apple-system,sans-serif" font-size="9" font-weight="600" fill="#ffffff">JS loads</text>
  <!-- cascade connector -->
  <line x1="255" y1="106" x2="255" y2="116" stroke="#cbd5e1" stroke-width="1.5" stroke-dasharray="2,2"/>

  <!-- ── ROW 2: /api/pages (300 → 900ms) x=255..395 ── -->
  <text x="174" y="131" text-anchor="end" font-family="system-ui,-apple-system,sans-serif" font-size="10" fill="#475569">/api/pages</text>
  <!-- idle area -->
  <rect x="180" y="116" width="75" height="30" rx="3" fill="url(#hatch)"/>
  <!-- active bar -->
  <rect x="255" y="116" width="140" height="30" rx="3" fill="#f97316"/>
  <text x="325" y="135" text-anchor="middle" font-family="system-ui,-apple-system,sans-serif" font-size="9" font-weight="600" fill="#ffffff">page data</text>
  <!-- cascade connector -->
  <line x1="395" y1="146" x2="395" y2="156" stroke="#cbd5e1" stroke-width="1.5" stroke-dasharray="2,2"/>

  <!-- ── ROW 3: image sizes (900 → 1200ms) x=395..470 ── -->
  <text x="174" y="171" text-anchor="end" font-family="system-ui,-apple-system,sans-serif" font-size="10" fill="#475569">image sizes</text>
  <!-- idle area -->
  <rect x="180" y="156" width="215" height="30" rx="3" fill="url(#hatch)"/>
  <!-- active bar -->
  <rect x="395" y="156" width="75" height="30" rx="3" fill="#3b82f6"/>
  <text x="432" y="175" text-anchor="middle" font-family="system-ui,-apple-system,sans-serif" font-size="9" font-weight="600" fill="#ffffff">fetch</text>
  <!-- cascade connector -->
  <line x1="470" y1="186" x2="470" y2="196" stroke="#cbd5e1" stroke-width="1.5" stroke-dasharray="2,2"/>

  <!-- ── ROW 4: author info (1.2 → 1.5s) x=470..545 ── -->
  <text x="174" y="211" text-anchor="end" font-family="system-ui,-apple-system,sans-serif" font-size="10" fill="#475569">author info</text>
  <!-- idle area -->
  <rect x="180" y="196" width="290" height="30" rx="3" fill="url(#hatch)"/>
  <!-- active bar -->
  <rect x="470" y="196" width="75" height="30" rx="3" fill="#3b82f6"/>
  <text x="507" y="215" text-anchor="middle" font-family="system-ui,-apple-system,sans-serif" font-size="9" font-weight="600" fill="#ffffff">fetch</text>
  <!-- cascade connector -->
  <line x1="545" y1="226" x2="545" y2="236" stroke="#cbd5e1" stroke-width="1.5" stroke-dasharray="2,2"/>

  <!-- ── ROW 5: video player (1.5 → 2.2s) x=545..680 ── -->
  <text x="174" y="251" text-anchor="end" font-family="system-ui,-apple-system,sans-serif" font-size="10" fill="#475569">video player</text>
  <!-- idle area -->
  <rect x="180" y="236" width="365" height="30" rx="3" fill="url(#hatch)"/>
  <!-- active bar -->
  <rect x="545" y="236" width="135" height="30" rx="3" fill="#3b82f6"/>
  <text x="612" y="255" text-anchor="middle" font-family="system-ui,-apple-system,sans-serif" font-size="9" font-weight="600" fill="#ffffff">lazy load</text>

  <!-- "page renders" vertical marker -->
  <line x1="680" y1="72" x2="680" y2="268" stroke="#ef4444" stroke-width="1.5" stroke-dasharray="4,3"/>

  <!-- total time bracket -->
  <line x1="180" y1="270" x2="680" y2="270" stroke="#ef4444" stroke-width="1.5"/>
  <line x1="180" y1="265" x2="180" y2="275" stroke="#ef4444" stroke-width="1.5"/>
  <line x1="680" y1="265" x2="680" y2="275" stroke="#ef4444" stroke-width="1.5"/>
  <text x="430" y="286" text-anchor="middle" font-family="system-ui,-apple-system,sans-serif" font-size="11" font-weight="600" fill="#ef4444">~2.2s before the user sees anything</text>
</svg>
